<?xml version="1.0" encoding="UTF-8"?>
<svg version="1.1" xmlns="http://www.w3.org/2000/svg" width="100%" viewBox="390 930 1220 280">
<path d="M0 0 C53.2919708 0 53.2919708 0 64 9 C70.43239062 16.91678846 70.68249431 25.17424865 70 35 C68.89580572 41.85713926 66.40335588 47.45455857 61 52 C60.34 52 59.68 52 59 52 C59 52.66 59 53.32 59 54 C59.680625 54.0825 60.36125 54.165 61.0625 54.25 C68.56952387 56.16668695 73.7387387 60.6576576 78 67 C81.97498486 75.09042856 82.46652397 85.20486497 80.2734375 93.87109375 C79.33780869 96.36990728 78.27432583 98.65742744 77 101 C76.66097656 101.64582031 76.32195312 102.29164062 75.97265625 102.95703125 C70.63082642 111.68265363 61.3152898 114.20541306 52 117 C34.84 117 17.68 117 0 117 C0 78.39 0 39.78 0 0 Z " fill="#F47C50" transform="translate(1343,1001)"/>
<path d="M0 0 C58.70929276 0 58.70929276 0 70.12890625 9.84375 C78.2010881 19.1461391 79.81161117 30.11139941 79 42 C77.42948792 51.14357458 73.15831327 58.85300985 65.75 64.5 C63.85904801 65.81926883 62.06171619 66.9691419 60 68 C60.58079056 71.63014128 61.55136386 74.39073773 63.3359375 77.59765625 C63.81836914 78.47260742 64.30080078 79.34755859 64.79785156 80.24902344 C65.57854004 81.64169434 65.57854004 81.64169434 66.375 83.0625 C66.90577148 84.02317383 67.43654297 84.98384766 67.98339844 85.97363281 C69.64892767 88.98617976 71.32335861 91.99362532 73 95 C74.59443193 97.86249321 76.18756497 100.72565995 77.77587891 103.59155273 C78.74516539 105.33957534 79.71868209 107.08526014 80.69677734 108.82836914 C81.13199707 109.61203857 81.5672168 110.39570801 82.015625 111.203125 C82.40008789 111.89051758 82.78455078 112.57791016 83.18066406 113.28613281 C84 115 84 115 84 117 C77.73 117 71.46 117 65 117 C60.33475992 108.14976514 60.33475992 108.14976514 58.01953125 103.7421875 C55.91891124 99.74412106 53.81055661 95.75022798 51.69921875 91.7578125 C50.61178204 89.69281213 49.52453894 87.62770979 48.4375 85.5625 C47.91317383 84.57435303 47.38884766 83.58620605 46.84863281 82.56811523 C46.36104492 81.63942627 45.87345703 80.7107373 45.37109375 79.75390625 C44.7203186 78.52136108 44.7203186 78.52136108 44.05639648 77.26391602 C43 75 43 75 42 71 C33.75 71 25.5 71 17 71 C17 86.18 17 101.36 17 117 C11.39 117 5.78 117 0 117 C0 78.39 0 39.78 0 0 Z " fill="#FFFFFF" transform="translate(755,1001)"/>
<path d="M0 0 C1.58206057 0.00667536 3.16410534 0.0186375 4.74609375 0.03515625 C5.55240234 0.03966797 6.35871094 0.04417969 7.18945312 0.04882812 C9.18753131 0.06065107 11.18557158 0.07858711 13.18359375 0.09765625 C23.47640792 28.66193632 33.75044441 57.23284018 43.98754883 85.81713867 C44.37289291 86.89284119 44.758237 87.9685437 45.15525818 89.07684326 C45.86819594 91.0671136 46.58091435 93.05746254 47.29335022 95.0479126 C47.61597336 95.94854431 47.9385965 96.84917603 48.27099609 97.77709961 C48.58155945 98.64664276 48.8921228 99.51618591 49.21209717 100.41207886 C49.90129765 102.31728497 50.60389949 104.21766715 51.31573486 106.11453247 C51.68285583 107.09711029 52.04997681 108.07968811 52.42822266 109.09204102 C52.76415436 109.97972672 53.10008606 110.86741241 53.44619751 111.78199768 C54.18359375 114.09765625 54.18359375 114.09765625 54.18359375 117.09765625 C48.90359375 117.09765625 43.62359375 117.09765625 38.18359375 117.09765625 C35.19030247 110.14265593 32.41411561 103.16521665 29.87109375 96.03515625 C29.60474121 95.29724854 29.33838867 94.55934082 29.06396484 93.79907227 C27.99929439 90.7759814 27.18359375 88.32704626 27.18359375 85.09765625 C12.33359375 85.42765625 -2.51640625 85.75765625 -17.81640625 86.09765625 C-21.44640625 96.32765625 -25.07640625 106.55765625 -28.81640625 117.09765625 C-34.42640625 117.09765625 -40.03640625 117.09765625 -45.81640625 117.09765625 C-43.31309636 108.42457249 -40.38038856 99.92029138 -37.37890625 91.41015625 C-37.10916992 90.64307343 -36.83943359 89.8759906 -36.56152344 89.08566284 C-30.08406853 70.67707405 -23.39671236 52.34407694 -16.70922852 34.01098633 C-16.08528954 32.30050362 -16.08528954 32.30050362 -15.44874573 30.5554657 C-14.64321782 28.34788035 -13.83727161 26.14044757 -13.03086853 23.93318176 C-10.53154629 17.08540607 -8.07221577 10.22532571 -5.67382812 3.34155273 C-4.2662829 -0.3420316 -4.32413184 0.1106482 0 0 Z " fill="#F47D51" transform="translate(1256.81640625,1000.90234375)"/>
<path d="M0 0 C5.61 0 11.22 0 17 0 C20.57890851 8.40168655 23.81985664 16.85337418 26.84375 25.46875 C27.29453687 26.74486038 27.74565627 28.02085333 28.19708252 29.29673767 C29.14637355 31.98151138 30.09373955 34.66695228 31.03942871 37.35299683 C33.24906357 43.62884133 35.4677879 49.90147352 37.68636322 56.17416191 C38.1764456 57.55992632 38.66640037 58.94573586 39.15622711 60.33159065 C43.80726596 73.48989325 48.5285602 86.62202502 53.31835938 99.73046875 C53.55971619 100.39365616 53.801073 101.05684357 54.04974365 101.74012756 C54.6741479 103.45562493 55.30128398 105.17012734 55.92871094 106.88452148 C57.07456171 110.21683727 58.03193239 113.61176336 59 117 C53.39 117 47.78 117 42 117 C36.555 101.655 36.555 101.655 31 86 C16.15 85.67 1.3 85.34 -14 85 C-14.99 88.63 -15.98 92.26 -17 96 C-18.17086166 99.37709226 -19.36242165 102.72148229 -20.625 106.0625 C-21.09292969 107.32223633 -21.09292969 107.32223633 -21.5703125 108.60742188 C-23.82874504 114.65749008 -23.82874504 114.65749008 -25 117 C-30.28 117 -35.56 117 -41 117 C-39.59751773 109.95080073 -37.51186611 103.37941937 -35.0625 96.62890625 C-34.66976395 95.53292618 -34.27702789 94.43694611 -33.87239075 93.30775452 C-32.58677961 89.72411563 -31.29349755 86.14329904 -30 82.5625 C-29.10590433 80.07552326 -28.21227384 77.58837923 -27.3190918 75.10107422 C-25.47568506 69.96965371 -23.62854315 64.83959191 -21.77880859 59.71044922 C-19.08045961 52.22771221 -16.39306699 44.74107282 -13.70703125 37.25390625 C-12.07603973 32.71075104 -10.44436989 28.16783976 -8.8125 23.625 C-8.42151123 22.53607452 -8.03052246 21.44714905 -7.62768555 20.32522583 C-6.53048519 17.27101659 -5.4315569 14.21743527 -4.33203125 11.1640625 C-3.84438042 9.80559959 -3.84438042 9.80559959 -3.34687805 8.41969299 C-3.05040878 7.59750778 -2.75393951 6.77532257 -2.44848633 5.92822266 C-2.19126297 5.21332672 -1.93403961 4.49843079 -1.66902161 3.76187134 C-1 2 -1 2 0 0 Z " fill="#FFFFFF" transform="translate(902,1001)"/>
<path d="M0 0 C0.70348572 -0.00267883 1.40697144 -0.00535767 2.1317749 -0.00811768 C14.75663705 0.00226196 25.90009649 1.90387182 37.6875 6.5 C38.36425781 6.75088379 39.04101562 7.00176758 39.73828125 7.26025391 C53.71061406 12.47887821 64.68211552 20.69626868 75.6875 30.5 C76.35652344 31.08394531 77.02554688 31.66789063 77.71484375 32.26953125 C94.36828412 47.74743465 105.61599874 72.36781071 106.87841797 94.90893555 C106.95502334 98.58724486 106.96050567 102.2585105 106.9375 105.9375 C106.94523438 107.17048828 106.95296875 108.40347656 106.9609375 109.67382812 C106.90064248 138.20844434 95.24472394 163.05843648 75.5 183.25 C64.61359084 194.00433595 51.96964052 202.02547154 37.6875 207.5 C37.02959473 207.7568457 36.37168945 208.01369141 35.69384766 208.27832031 C15.72556805 215.69089587 -12.33994843 215.46844519 -32.3125 208.5 C-33.4365625 208.11070312 -34.560625 207.72140625 -35.71875 207.3203125 C-62.31684703 197.42984365 -84.37783759 177.3407804 -96.3125 151.5 C-102.81319481 136.11173911 -102.81319481 136.11173911 -102.3125 129.5 C-100.6625 129.17 -99.0125 128.84 -97.3125 128.5 C-96.920625 129.551875 -96.52875 130.60375 -96.125 131.6875 C-95.84914063 132.41710938 -95.57328125 133.14671875 -95.2890625 133.8984375 C-94.58488034 135.77437878 -93.89376184 137.65524215 -93.2109375 139.5390625 C-83.7073912 165.22929412 -66.18981335 185.61811263 -41.42797852 197.47900391 C-18.76770715 207.6793223 8.01512135 209.37352638 31.6875 201.5 C32.80382812 201.149375 33.92015625 200.79875 35.0703125 200.4375 C48.30952393 195.84365314 59.77119889 188.33898102 69.6875 178.5 C70.574375 177.654375 71.46125 176.80875 72.375 175.9375 C73.5196875 174.7309375 73.5196875 174.7309375 74.6875 173.5 C75.21730469 172.94183594 75.74710938 172.38367187 76.29296875 171.80859375 C96.13531625 150.1265584 100.58600935 123.28885154 99.85351562 94.98730469 C98.75935185 72.0034291 85.73787601 49.39930861 69.296875 33.80078125 C45.5148132 12.83126868 18.26758757 5.88116877 -12.90625 7.7109375 C-31.52934107 9.87083208 -49.12214951 18.54099437 -63.3125 30.5 C-64.53066406 31.49966797 -64.53066406 31.49966797 -65.7734375 32.51953125 C-83.94095743 48.03179827 -96.16951317 71.66598356 -98.3125 95.5 C-98.55949205 99.66473627 -98.7228955 103.83084056 -98.875 108 C-98.91818359 109.10859375 -98.96136719 110.2171875 -99.00585938 111.359375 C-99.11112214 114.07281506 -99.21325846 116.78633417 -99.3125 119.5 C-101.1875 120.125 -101.1875 120.125 -103.3125 120.5 C-106.51426639 117.29823361 -105.63799365 113.60161332 -105.69335938 109.23193359 C-105.64555416 78.27407314 -96.05774206 53.09647929 -74.3125 30.5 C-54.0325099 10.72397945 -28.18570582 0.06365448 0 0 Z " fill="#FFFFFF" transform="translate(503.3125,951.5)"/>
<path d="M0 0 C0.10251672 5.12583611 0.03590199 9.94997778 -1 15 C-1.55945312 14.81824219 -2.11890625 14.63648438 -2.6953125 14.44921875 C-18.64490969 9.4489431 -35.70182073 5.25360662 -51.40234375 13.21875 C-60.21249509 18.64038159 -66.7129861 26.17355844 -70 36 C-70.33644531 36.97453125 -70.33644531 36.97453125 -70.6796875 37.96875 C-74.56249588 51.79793055 -72.59089893 68.37654604 -66.45703125 81.234375 C-60.79223923 90.82692898 -52.53757656 96.74619919 -41.765625 99.58984375 C-28.59902218 101.5425179 -14.76841941 100.5036002 -3 94 C-2.34 94 -1.68 94 -1 94 C-0.505 101.425 -0.505 101.425 0 109 C-16.8647272 115.48643354 -36.85573322 118.82000271 -54.2890625 112.25390625 C-70.04758568 104.96502161 -80.80647262 93.87675289 -87.17578125 77.6796875 C-91.91153661 62.2828715 -92.88115114 42.85556929 -86 28 C-85.36384766 26.58267578 -85.36384766 26.58267578 -84.71484375 25.13671875 C-79.10172708 13.83230831 -71.00973152 6.00967878 -60 0 C-59.24847656 -0.41121094 -58.49695313 -0.82242188 -57.72265625 -1.24609375 C-40.6290006 -9.68473388 -16.88338769 -7.69464129 0 0 Z " fill="#FFFFFF" transform="translate(1076,1005)"/>
<path d="M0 0 C-0.875 4.875 -0.875 4.875 -2 6 C-3.90812859 6.09561892 -5.81682702 6.1846559 -7.7265625 6.23950195 C-20.31306652 6.62258061 -31.5396534 9.21157434 -43.14453125 14.265625 C-45 15 -45 15 -47 15 C-46.62746094 15.53109375 -46.25492187 16.0621875 -45.87109375 16.609375 C-45.39800781 17.31578125 -44.92492187 18.0221875 -44.4375 18.75 C-43.96183594 19.44609375 -43.48617187 20.1421875 -42.99609375 20.859375 C-42 23 -42 23 -42.34765625 25.265625 C-42.56292969 25.83796875 -42.77820313 26.4103125 -43 27 C-44.32 27.33 -45.64 27.66 -47 28 C-49.475 24.04 -49.475 24.04 -52 20 C-63.01426914 25.50713457 -74.117075 35.51076471 -79 47 C-76.36 48.65 -73.72 50.3 -71 52 C-71.33 53.32 -71.66 54.64 -72 56 C-73.6875 56.6875 -73.6875 56.6875 -76 57 C-77.69514137 56.04906703 -79.36368108 55.04892238 -81 54 C-81.99 54 -82.98 54 -84 54 C-93.97482356 75.52669433 -95.56036024 100.37000279 -88 123 C-86.79157493 126.09454798 -85.4661874 129.01526136 -84 132 C-84 132.66 -84 133.32 -84 134 C-82.4221875 133.01 -82.4221875 133.01 -80.8125 132 C-77.73376063 130.2228415 -75.61403672 129.56193494 -72 130 C-71.505 131.98 -71.505 131.98 -71 134 C-72.12073862 134.83905565 -73.24674547 135.67107831 -74.375 136.5 C-75.00148438 136.9640625 -75.62796875 137.428125 -76.2734375 137.90625 C-78 139 -78 139 -80 139 C-72.37636711 149.77209427 -65.35034443 158.92250496 -54 166 C-53.34 166 -52.68 166 -52 166 C-50.68 163.69 -49.36 161.38 -48 159 C-46.35 159 -44.7 159 -43 159 C-42.25 160.5625 -42.25 160.5625 -42 163 C-43.13084437 165.50286409 -44.52139516 167.67007722 -46 170 C-32.34911269 181.07168741 -10.50940923 181.50030582 6.19580078 179.77294922 C15.28491447 178.53143453 23.57380619 175.5067094 32 172 C32.99 171.67 33.98 171.34 35 171 C34.34 169.948125 33.68 168.89625 33 167.8125 C31.2228415 164.73376063 30.56193494 162.61403672 31 159 C33.25 158.625 33.25 158.625 36 159 C40 163.97297297 40 163.97297297 40 167 C50.41494799 160.5849958 63.96963377 151.0910987 68 139 C67.236875 138.71125 66.47375 138.4225 65.6875 138.125 C63 137 63 137 60 135 C60.33 133.35 60.66 131.7 61 130 C64.96435532 130.55316586 68.3162378 131.45620868 72 133 C72.37511719 131.85660156 72.75023437 130.71320313 73.13671875 129.53515625 C73.65256349 128.043896 74.16955018 126.55303041 74.6875 125.0625 C74.93177734 124.30775391 75.17605469 123.55300781 75.42773438 122.77539062 C76.15782756 120.71449468 76.85251705 118.86228955 78 117 C80.70703125 115.99609375 80.70703125 115.99609375 83 116 C84.18359375 117.49609375 84.18359375 117.49609375 85 120 C84.16261898 122.86030148 83.25606938 125.35588844 82.0625 128.0625 C81.73475586 128.82401367 81.40701172 129.58552734 81.06933594 130.37011719 C71.39557661 152.26824353 53.92822955 170.23720394 32 180 C10.80649094 188.18450222 -14.36539483 191.31052214 -36 183 C-37.02351563 182.63777344 -38.04703125 182.27554687 -39.1015625 181.90234375 C-63.03243106 172.78140548 -81.67176584 154.49969383 -92.1875 131.3125 C-95.31813506 123.7370328 -97.21098997 115.98173705 -99 108 C-99.17724609 107.34974854 -99.35449219 106.69949707 -99.53710938 106.02954102 C-101.88712204 95.72592537 -100.0816505 83.16959193 -98 73 C-97.82855469 72.04222656 -97.65710938 71.08445312 -97.48046875 70.09765625 C-92.71698623 47.20220802 -76.51684405 26.7527039 -57.40234375 14.0703125 C-43.92616554 5.87011221 -16.06625542 -8.03312771 0 0 Z " fill="#FFFFFF" transform="translate(510,965)"/>
<path d="M0 0 C27.72 0 55.44 0 84 0 C84 4.95 84 9.9 84 15 C72.78 15 61.56 15 50 15 C50 48.66 50 82.32 50 117 C44.72 117 39.44 117 34 117 C34 83.01 34 49.02 34 14 C22.78 14 11.56 14 0 14 C0 9.38 0 4.76 0 0 Z " fill="#FFFFFF" transform="translate(639,1001)"/>
<path d="M0 0 C27.39 0 54.78 0 83 0 C83 4.62 83 9.24 83 14 C71.78 14 60.56 14 49 14 C49 47.99 49 81.98 49 117 C44.05 117 39.1 117 34 117 C34 83.01 34 49.02 34 14 C22.78 14 11.56 14 0 14 C0 9.38 0 4.76 0 0 Z " fill="#F47B4F" transform="translate(1508,1001)"/>
<path d="M0 0 C2.56278699 -0.05420701 5.12441483 -0.09377007 7.6875 -0.125 C8.40873047 -0.14175781 9.12996094 -0.15851563 9.87304688 -0.17578125 C14.04876781 -0.21391569 17.2494138 0.1210081 21 2 C21.66 1.34 22.32 0.68 23 0 C25.9093558 -0.14517744 28.719946 -0.18630796 31.625 -0.125 C32.42679688 -0.11597656 33.22859375 -0.10695313 34.0546875 -0.09765625 C36.03658523 -0.07406223 38.01832981 -0.03819065 40 0 C40.495 1.98 40.495 1.98 41 4 C42.093125 4.103125 43.18625 4.20625 44.3125 4.3125 C49.06062079 5.19774286 49.06062079 5.19774286 51 8 C51.58967158 12.25626316 51.5150041 16.53204893 51.50097656 20.82397461 C51.50000454 22.92766349 51.54161376 25.02769776 51.5859375 27.13085938 C51.59114526 28.47134658 51.59383268 29.81184643 51.59375 31.15234375 C51.60083984 32.36913818 51.60792969 33.58593262 51.61523438 34.83959961 C51 38 51 38 49.19335938 40.39257812 C44.31782222 42.84674759 39.69979552 42.5907873 34.3125 42.56640625 C32.60960815 42.57570412 32.60960815 42.57570412 30.87231445 42.58518982 C28.47510637 42.59228514 26.07784899 42.5891191 23.68066406 42.57641602 C20.01275019 42.56254821 16.34738607 42.59663219 12.6796875 42.63476562 C10.34895771 42.6357168 8.01822472 42.63385807 5.6875 42.62890625 C4.59155518 42.64216446 3.49561035 42.65542267 2.36645508 42.66908264 C-2.40887159 42.61066778 -5.15600984 42.56556775 -9.18896484 39.86303711 C-11.32763474 36.48204737 -11.6439203 34.5449016 -11.6640625 30.5625 C-11.67050781 29.33789062 -11.67695313 28.11328125 -11.68359375 26.8515625 C-11.66425781 25.58054687 -11.64492188 24.30953125 -11.625 23 C-11.64433594 21.72898437 -11.66367187 20.45796875 -11.68359375 19.1484375 C-11.6291542 8.80492379 -11.6291542 8.80492379 -8.63671875 5.64453125 C-5.76423192 3.85295057 -4.31947371 3.52578947 -1 4 C-0.67 2.68 -0.34 1.36 0 0 Z " fill="#FFFFFF" transform="translate(484,1093)"/>
<path d="M0 0 C1.29647461 0.08797852 1.29647461 0.08797852 2.61914062 0.17773438 C3.50279297 0.20931641 4.38644531 0.24089844 5.296875 0.2734375 C7.46823203 0.35559696 9.63787075 0.48114949 11.80664062 0.61523438 C10.20841052 3.94360645 8.3708123 6.52557471 5.99414062 9.36523438 C5.18847656 10.33589844 4.3828125 11.3065625 3.55273438 12.30664062 C3.11171387 12.83660645 2.67069336 13.36657227 2.21630859 13.91259766 C-0.3597448 17.02402758 -2.89915747 20.1652537 -5.44335938 23.30273438 C-6.5526708 24.66867143 -7.66204674 26.03455608 -8.77148438 27.40039062 C-11.09494095 30.26193194 -13.41769875 33.12403931 -15.74023438 35.98632812 C-16.31870117 36.69893799 -16.89716797 37.41154785 -17.49316406 38.14575195 C-18.59311089 39.50078409 -19.69274155 40.85607296 -20.79199219 42.21166992 C-21.29569336 42.83211182 -21.79939453 43.45255371 -22.31835938 44.09179688 C-22.79660156 44.68766602 -23.27484375 45.28353516 -23.76757812 45.89746094 C-24.71465784 47.03849739 -25.69714937 48.15107784 -26.71289062 49.23144531 C-29.46694886 52.19239323 -29.46694886 52.19239323 -30.34570312 56.02539062 C-28.66884946 59.79404818 -26.29861877 62.82330127 -23.75585938 66.05273438 C-22.65036522 67.49051674 -21.54621902 68.92933645 -20.44335938 70.36914062 C-19.89164063 71.08602051 -19.33992188 71.80290039 -18.77148438 72.54150391 C-16.53542584 75.47978999 -14.38762858 78.47582088 -12.25585938 81.49023438 C-8.36959023 86.97089071 -4.4460437 92.42319866 -0.50585938 97.86523438 C12.80664062 116.28079482 12.80664062 116.28079482 12.80664062 117.61523438 C-3.57910153 120.11944772 -3.57910153 120.11944772 -8.99462891 116.3671875 C-12.33363227 112.74141879 -14.54040598 108.37569379 -16.83447266 104.04492188 C-19.23007115 99.76159521 -22.14584557 95.84663035 -25.00585938 91.86523438 C-26.18759634 90.18438174 -27.36726222 88.50207122 -28.54492188 86.81835938 C-29.13950195 85.97080078 -29.73408203 85.12324219 -30.34667969 84.25 C-32.26423046 81.51411847 -34.17844192 78.77592669 -36.09179688 76.03710938 C-37.04348755 74.67537598 -37.04348755 74.67537598 -38.0144043 73.28613281 C-39.23118155 71.54492377 -40.44751193 69.80340233 -41.66333008 68.06152344 C-42.21335693 67.27487305 -42.76338379 66.48822266 -43.33007812 65.67773438 C-43.81178467 64.98808594 -44.29349121 64.2984375 -44.78979492 63.58789062 C-45.7775704 62.19960991 -46.81092887 60.84320527 -47.87524414 59.51269531 C-49.19335938 57.61523438 -49.19335938 57.61523438 -49.14648438 55.19335938 C-47.9411168 51.93293888 -46.24982522 49.96930872 -43.94335938 47.36523438 C-39.72730074 42.50155834 -35.75783529 37.50298697 -31.88085938 32.36523438 C-26.92175173 25.81265527 -21.8296399 19.38997279 -16.59448242 13.05566406 C-16.09086182 12.44368164 -15.58724121 11.83169922 -15.06835938 11.20117188 C-14.5761792 10.61247314 -14.08399902 10.02377441 -13.5769043 9.41723633 C-12.14728081 7.64000104 -12.14728081 7.64000104 -11.05395508 5.6159668 C-8.11913572 0.55776063 -5.79031583 -0.15529583 0 0 Z " fill="#FFFFFF" transform="translate(1179.193359375,1000.384765625)"/>
<path d="M0 0 C9.71513135 3.25866919 18.01743106 11.95966057 22.64941406 20.88867188 C24.92175356 29.54648419 25.3551168 40.26550394 22.64941406 48.88867188 C19.98586651 52.47276474 18.5422588 53.72519239 14.1159668 54.53564453 C12.77203326 54.56836246 11.42719217 54.57263941 10.08300781 54.55273438 C9.00914574 54.55990982 9.00914574 54.55990982 7.91358948 54.56723022 C6.4066446 54.57061959 4.89962523 54.56148427 3.39282227 54.54052734 C1.08931567 54.51369984 -1.20933763 54.54031892 -3.51269531 54.57226562 C-4.98080499 54.56896212 -6.44891165 54.56255708 -7.91699219 54.55273438 C-8.94524864 54.56791611 -8.94524864 54.56791611 -9.99427795 54.58340454 C-13.35751238 54.50112631 -15.12364237 54.06771551 -17.78198242 51.97045898 C-20.01329435 47.58666903 -19.92438451 43.77202972 -19.88183594 38.91601562 C-19.88566284 37.95595108 -19.88948975 36.99588654 -19.89343262 36.00672913 C-19.8961489 33.98193307 -19.8888076 31.95710175 -19.87207031 29.93237305 C-19.85063335 26.83302722 -19.87189383 23.73599324 -19.89746094 20.63671875 C-19.89481807 18.66731259 -19.88969394 16.69790788 -19.88183594 14.72851562 C-19.88993286 13.80239975 -19.89802979 12.87628387 -19.90637207 11.92210388 C-19.81330008 5.54091123 -19.81330008 5.54091123 -17.54394531 2.34204102 C-12.31586207 -1.12220426 -5.9939637 -1.10820503 0 0 Z " fill="#FFFFFF" transform="translate(445.3505859375,1031.111328125)"/>
<path d="M0 0 C5.28 0 10.56 0 16 0 C16 38.61 16 77.22 16 117 C10.72 117 5.44 117 0 117 C0 78.39 0 39.78 0 0 Z " fill="#F47C50" transform="translate(1459,1001)"/>
<path d="M0 0 C5.28 0 10.56 0 16 0 C16 38.61 16 77.22 16 117 C10.72 117 5.44 117 0 117 C0 78.39 0 39.78 0 0 Z " fill="#FFFFFF" transform="translate(1112,1001)"/>
<path d="M0 0 C5.23875 -0.0825 10.4775 -0.165 15.875 -0.25 C17.50679199 -0.28641602 19.13858398 -0.32283203 20.81982422 -0.36035156 C28.78751176 -0.42088295 35.98363215 -0.26730286 43 4 C47.76586601 8.76586601 48.17200387 12.74132644 48.25 19.3125 C48.27578125 20.60800781 48.3015625 21.90351562 48.328125 23.23828125 C47.88572522 28.31007876 46.40459463 31.59540537 42.8125 35.1875 C33.98635814 40.87545809 25.667485 40.36129878 15.5 40.1875 C10.385 40.125625 5.27 40.06375 0 40 C0 26.8 0 13.6 0 0 Z " fill="#FEFCFB" transform="translate(1358,1064)"/>
<path d="M0 0 C6.4040625 -0.0928125 6.4040625 -0.0928125 12.9375 -0.1875 C14.26515381 -0.21481201 15.59280762 -0.24212402 16.96069336 -0.27026367 C25.17199973 -0.32755615 31.90842041 0.33157853 38.875 4.875 C43.93292791 9.93292791 45.14115752 14.78808448 45.3125 21.75 C45.24412081 28.75886734 43.64825395 33.35174605 38.6875 38.3125 C30.42936333 43.49784163 23.71213029 43.36922461 14.0625 43.1875 C9.421875 43.125625 4.78125 43.06375 0 43 C0 28.81 0 14.62 0 0 Z " fill="#FCFCFC" transform="translate(772,1015)"/>
<path d="M0 0 C3.53507936 2.49741925 6.4435781 5.51286523 9.4375 8.625 C10.67790039 9.83736328 10.67790039 9.83736328 11.94335938 11.07421875 C17.89729035 17.121564 17.89729035 17.121564 18.35961914 21.07568359 C17.83368 25.35246497 16.14132484 27.12602196 13 30 C8.43882628 31.28032947 6.06709325 31.27828418 2 29 C-0.75392225 31.07402624 -3.07392331 33.12365736 -5 36 C-5.07162687 38.67547415 -4.63678461 40.99964874 -4.14453125 43.625 C-3.96987407 46.49504229 -4.48993118 47.39003975 -6.3125 49.5625 C-9.20071132 52.1820405 -10.0398497 52.90094997 -13.84228516 53.29321289 C-19.51957468 52.76604228 -22.54804316 48.35295903 -26.375 44.4375 C-27.20644531 43.63763672 -28.03789063 42.83777344 -28.89453125 42.01367188 C-34.8237054 36.05042202 -34.8237054 36.05042202 -35.65625 31.08984375 C-34.87702805 27.42100708 -33.63610363 25.63610363 -31 23 C-28.03325429 21.51662714 -25.28247334 21.94340563 -22 22 C-18.1696916 22.40694193 -18.1696916 22.40694193 -16.296875 20.6875 C-15.78640625 20.130625 -15.2759375 19.57375 -14.75 19 C-14.22921875 18.443125 -13.7084375 17.88625 -13.171875 17.3125 C-12.78515625 16.879375 -12.3984375 16.44625 -12 16 C-12.33 15.01 -12.66 14.02 -13 13 C-13.38887761 8.80012182 -13.45908323 6.70392762 -11.125 3.125 C-7.82568786 -0.17431214 -4.55846789 -1.25109252 0 0 Z " fill="#FFFFFF" transform="translate(566,1032)"/>
<path d="M0 0 C3.774375 -0.061875 7.54875 -0.12375 11.4375 -0.1875 C12.60853271 -0.21481201 13.77956543 -0.24212402 14.98608398 -0.27026367 C21.7614998 -0.32358631 29.24627656 -0.28613551 34.61889648 4.41723633 C38.81314764 9.22390598 39.29504574 13.31651369 39.21484375 19.4296875 C38.80020276 24.39030152 37.26354513 27.73645487 33.6875 31.3125 C28.90554283 34.31512427 24.54918406 35.25308437 18.9453125 35.1953125 C17.94516113 35.19031738 16.94500977 35.18532227 15.91455078 35.18017578 C14.66399902 35.16196777 13.41344727 35.14375977 12.125 35.125 C8.12375 35.08375 4.1225 35.0425 0 35 C0 23.45 0 11.9 0 0 Z " fill="#FEFAF9" transform="translate(1358,1015)"/>
<path d="M0 0 C4.57107506 0.33086846 8.36941429 1.69905017 12.6328125 3.31640625 C13.47376465 3.63222656 14.3147168 3.94804688 15.18115234 4.2734375 C36.57777136 12.54805556 53.15379453 27.51898429 64.5078125 47.25390625 C64.99894531 48.08277344 65.49007812 48.91164063 65.99609375 49.765625 C73.19011694 62.88413787 75.68732002 77.69528028 75.6953125 92.44140625 C75.70755859 93.64216797 75.71980469 94.84292969 75.73242188 96.08007812 C75.73435547 97.22412109 75.73628906 98.36816406 75.73828125 99.546875 C75.74239014 100.59383545 75.74649902 101.6407959 75.75073242 102.71948242 C75.5078125 105.25390625 75.5078125 105.25390625 73.5078125 107.25390625 C69.97209821 106.71819196 69.97209821 106.71819196 68.5078125 105.25390625 C68.46912122 103.65925918 68.49631215 102.06293613 68.55078125 100.46875 C68.85330186 87.97565714 68.48021313 77.15759659 64.5078125 65.25390625 C64.14945313 64.14917969 63.79109375 63.04445313 63.421875 61.90625 C61.73520129 56.61922219 61.73520129 56.61922219 58.5078125 52.25390625 C57.4353125 52.93453125 56.3628125 53.61515625 55.2578125 54.31640625 C51.84623517 56.28861627 51.84623517 56.28861627 49.0703125 56.00390625 C48.5546875 55.75640625 48.0390625 55.50890625 47.5078125 55.25390625 C47.5078125 53.60390625 47.5078125 51.95390625 47.5078125 50.25390625 C50.9728125 48.27390625 50.9728125 48.27390625 54.5078125 46.25390625 C53.04816611 41.86685792 50.70145804 38.56620755 47.7578125 35.06640625 C47.28625732 34.5041333 46.81470215 33.94186035 46.32885742 33.36254883 C40.9010043 27.16892595 34.38403479 22.70086461 27.5078125 18.25390625 C27.21132813 19.03121094 26.91484375 19.80851563 26.609375 20.609375 C25.52967996 23.20140884 24.27289063 25.087674 22.5078125 27.25390625 C21.1878125 26.92390625 19.8678125 26.59390625 18.5078125 26.25390625 C18.9760246 21.47814286 19.75113248 18.2091428 22.5078125 14.25390625 C14.21952102 11.44180736 5.86606306 8.84855336 -2.4921875 6.25390625 C-2.87437517 4.59775968 -3.20613852 2.92933601 -3.4921875 1.25390625 C-2.4921875 0.25390625 -2.4921875 0.25390625 0 0 Z " fill="#FFFFFF" transform="translate(522.4921875,965.74609375)"/>
<path d="M0 0 C4.4311575 0.50104961 6.44373112 1.93576777 9.625 5 C13.98342934 9.08119197 18.46652445 12.90147623 23.1171875 16.64453125 C25.19667631 18.34362577 27.23502315 20.06040864 29.2578125 21.82421875 C29.79873535 22.29093994 30.3396582 22.75766113 30.89697266 23.23852539 C32.42649657 24.56142614 33.9478412 25.89376611 35.46875 27.2265625 C36.3040625 27.81179688 37.139375 28.39703125 38 29 C38.99 28.67 39.98 28.34 41 28 C47.48348342 27.23354169 51.81689971 27.95718177 57 32 C59.32241005 35.77391633 60.25941183 38.75030078 59.9375 43.125 C58.63744192 48.49857341 56.79899053 50.84065055 52.1875 53.8125 C48.4363986 55.20996915 45.97580865 55.49697608 42 55 C38.48710077 53.17599463 36.48098019 51.99174244 34.73828125 48.3984375 C33.17706404 45.67772904 33.17706404 45.67772904 29.93359375 45.36328125 C28.20302734 45.33814453 28.20302734 45.33814453 26.4375 45.3125 C20.17995444 45.17995444 20.17995444 45.17995444 18 43 C18.53571429 39.46428571 18.53571429 39.46428571 20 38 C22.18292774 37.76518307 24.37203174 37.58636677 26.5625 37.4375 C27.76003906 37.35371094 28.95757812 37.26992187 30.19140625 37.18359375 C31.11824219 37.12300781 32.04507813 37.06242187 33 37 C32.73265199 33.7992502 31.86901718 32.87293019 29.515625 30.58984375 C28.43467298 29.69646573 27.34555672 28.81290678 26.25 27.9375 C25.06489481 26.96379642 23.88000523 25.98983037 22.6953125 25.015625 C22.08461914 24.51869141 21.47392578 24.02175781 20.84472656 23.50976562 C17.90713433 21.10557421 15.01755627 18.64551572 12.125 16.1875 C11.05088521 15.27852297 9.97667029 14.36966425 8.90234375 13.4609375 C5.59075973 10.6529995 2.29111189 7.83188697 -1 5 C-0.67 3.35 -0.34 1.7 0 0 Z " fill="#FFFFFF" transform="translate(458,1017)"/>
<path d="M0 0 C3.63 0 7.26 0 11 0 C11.03867187 1.57201172 11.03867187 1.57201172 11.078125 3.17578125 C11.13440858 4.55472902 11.19175588 5.93363365 11.25 7.3125 C11.26417969 8.00279297 11.27835937 8.69308594 11.29296875 9.40429688 C11.44164916 12.4819813 11.60478278 14.51953985 13.59375 16.9375 C16.84821887 18.3745382 19.70430249 18.52334734 23.25 18.6875 C25.14492188 18.78611328 25.14492188 18.78611328 27.078125 18.88671875 C28.04234375 18.92410156 29.0065625 18.96148438 30 19 C30.02887814 22.47914941 30.04675687 25.95826831 30.0625 29.4375 C30.07087891 30.43072266 30.07925781 31.42394531 30.08789062 32.44726562 C30.09272461 33.86362305 30.09272461 33.86362305 30.09765625 35.30859375 C30.10551147 36.62041626 30.10551147 36.62041626 30.11352539 37.95874023 C30 40 30 40 29 41 C26.9394469 41.09993532 24.8754741 41.13080906 22.8125 41.1328125 C21.55695313 41.13410156 20.30140625 41.13539062 19.0078125 41.13671875 C18.35071289 41.13462402 17.69361328 41.1325293 17.01660156 41.13037109 C15.00838665 41.12502234 13.00039541 41.13031691 10.9921875 41.13671875 C9.73664063 41.13542969 8.48109375 41.13414063 7.1875 41.1328125 C6.02605469 41.13168457 4.86460937 41.13055664 3.66796875 41.12939453 C1 41 1 41 0 40 C-0.08868299 37.04294679 -0.11520296 34.10934944 -0.09765625 31.15234375 C-0.0962413 30.2659169 -0.09482635 29.37949005 -0.09336853 28.46620178 C-0.08775215 25.62326746 -0.07519691 22.78041069 -0.0625 19.9375 C-0.05748711 18.01497509 -0.05292384 16.09244896 -0.04882812 14.16992188 C-0.03777741 9.44658451 -0.02050183 4.72330542 0 0 Z " fill="#F6F6F6" transform="translate(432,1038)"/>
<path d="M0 0 C2.66595365 1.33297683 2.71307195 2.43383684 3.69580078 5.21264648 C4.01598175 6.10704941 4.33616272 7.00145233 4.66604614 7.92295837 C5.00570404 8.89584305 5.34536194 9.86872772 5.6953125 10.87109375 C6.04761932 11.86375748 6.39992615 12.8564212 6.76290894 13.87916565 C7.50764805 15.98211334 8.24885097 18.08631613 8.98681641 20.19165039 C10.11990774 23.42297798 11.26406507 26.65021641 12.41015625 29.87695312 C13.13086393 31.91643511 13.85093741 33.95614134 14.5703125 35.99609375 C14.91401886 36.96695419 15.25772522 37.93781464 15.61184692 38.93809509 C15.92572357 39.83565018 16.23960022 40.73320526 16.56298828 41.65795898 C16.84119415 42.44992172 17.11940002 43.24188446 17.40603638 44.05784607 C18 46 18 46 18 48 C6.78 48 -4.44 48 -16 48 C-14.875 40.125 -14.875 40.125 -13.50952148 36.44165039 C-13.20928574 35.62132828 -12.90904999 34.80100616 -12.59971619 33.95582581 C-12.27677078 33.09512985 -11.95382538 32.2344339 -11.62109375 31.34765625 C-11.28956802 30.44752304 -10.9580423 29.54738983 -10.61647034 28.61997986 C-9.56329146 25.7650419 -8.50055956 22.9137716 -7.4375 20.0625 C-6.71876575 18.11937549 -6.00066004 16.17601837 -5.28320312 14.23242188 C-3.52939879 9.48555809 -1.76702215 4.74195846 0 0 Z " fill="#F8F8F8" transform="translate(910,1024)"/>
<path d="M0 0 C1.6761213 2.51418195 2.60458989 4.36256949 3.60400391 7.1484375 C3.90416412 7.97939941 4.20432434 8.81036133 4.51358032 9.66650391 C4.83136444 10.56030762 5.14914856 11.45411133 5.4765625 12.375 C5.80667328 13.29587402 6.13678406 14.21674805 6.47689819 15.16552734 C7.17317167 17.11157264 7.86734415 19.05837074 8.55957031 21.00585938 C9.62168247 23.99067687 10.69320616 26.97199741 11.765625 29.953125 C12.4406753 31.84354615 13.11517325 33.73416465 13.7890625 35.625 C14.11089508 36.51880371 14.43272766 37.41260742 14.76431274 38.33349609 C15.05816864 39.16445801 15.35202454 39.99541992 15.65478516 40.8515625 C15.91522614 41.58197754 16.17566711 42.31239258 16.44400024 43.06494141 C17 45 17 45 17 48 C5.78 48 -5.44 48 -17 48 C-15.1463336 41.20322319 -13.3017878 34.6658911 -10.8984375 28.0859375 C-10.61650543 27.30481598 -10.33457336 26.52369446 -10.0440979 25.71890259 C-9.45627217 24.09326489 -8.86636863 22.46837707 -8.27441406 20.84423828 C-7.36492524 18.34734089 -6.46327882 15.84770742 -5.5625 13.34765625 C-4.98743349 11.76025201 -4.41192914 10.17300629 -3.8359375 8.5859375 C-3.56615082 7.83815033 -3.29636414 7.09036316 -3.0184021 6.31991577 C-1.11559504 1.11559504 -1.11559504 1.11559504 0 0 Z " fill="#FEFCFB" transform="translate(1261,1024)"/>
<path d="M0 0 C0.04898437 1.13179687 0.09796875 2.26359375 0.1484375 3.4296875 C0.22346514 4.91148339 0.29901297 6.393253 0.375 7.875 C0.4059375 8.62136719 0.436875 9.36773438 0.46875 10.13671875 C0.55643831 14.53473188 0.55643831 14.53473188 3 18 C3.04898437 16.79601562 3.09796875 15.59203125 3.1484375 14.3515625 C3.22346343 12.77601802 3.29901133 11.20049834 3.375 9.625 C3.42140625 8.43390625 3.42140625 8.43390625 3.46875 7.21875 C3.7734375 1.2265625 3.7734375 1.2265625 6 -1 C9.53571429 -0.46428571 9.53571429 -0.46428571 11 1 C11.23701239 3.85877909 11.42219182 6.69883297 11.5625 9.5625 C11.60568359 10.36880859 11.64886719 11.17511719 11.69335938 12.00585938 C11.79975262 14.00368805 11.90040888 16.0018207 12 18 C12.66 18 13.32 18 14 18 C14.33 12.06 14.66 6.12 15 0 C16.65 -0.33 18.3 -0.66 20 -1 C22.39863679 1.39863679 21.42908564 7.76555693 21.46191406 11.11865234 C21.38043619 15.64972747 21.25300659 18.9941608 18.25 22.625 C15.57737059 25.17614625 14.99798275 25 11 25 C11.00785522 25.90093384 11.00785522 25.90093384 11.01586914 26.82006836 C11.03658014 29.52586838 11.04964125 32.23165177 11.0625 34.9375 C11.07087891 35.88302734 11.07925781 36.82855469 11.08789062 37.80273438 C11.09272461 39.15141602 11.09272461 39.15141602 11.09765625 40.52734375 C11.10551147 41.77632446 11.10551147 41.77632446 11.11352539 43.05053711 C11 45 11 45 10 46 C8.33382885 46.04063832 6.66611905 46.042721 5 46 C3.82573736 43.65147472 3.88491827 42.26225935 3.90234375 39.6484375 C3.90556641 38.79765625 3.90878906 37.946875 3.91210938 37.0703125 C3.92048828 36.18085937 3.92886719 35.29140625 3.9375 34.375 C3.94201172 33.4778125 3.94652344 32.580625 3.95117188 31.65625 C3.96297409 29.43743352 3.97943845 27.21874982 4 25 C3.22140625 24.87367188 2.4428125 24.74734375 1.640625 24.6171875 C-1.66244075 23.84516917 -2.8673338 22.5896661 -5 20 C-5.90238747 17.29283758 -6.11851302 15.76223232 -6.09765625 12.98828125 C-6.09443359 12.23095703 -6.09121094 11.47363281 -6.08789062 10.69335938 C-6.07951172 9.90767578 -6.07113281 9.12199219 -6.0625 8.3125 C-6.05798828 7.51521484 -6.05347656 6.71792969 -6.04882812 5.89648438 C-6.0370585 3.93095743 -6.01912348 1.96546915 -6 0 C-3.50907189 -1.24546405 -2.58919267 -0.7767578 0 0 Z " fill="#FFFFFF" transform="translate(482,981)"/>
<path d="M0 0 C3.28287119 2.66733285 5.76508245 4.85878432 6.23828125 9.171875 C6.40615559 15.00329927 6.00477651 18.42311256 2 23 C1.01 23.66 0.02 24.32 -1 25 C-1.50702517 27.12106795 -1.50702517 27.12106795 -1.51171875 29.5703125 C-1.54716797 30.46621094 -1.58261719 31.36210938 -1.61914062 32.28515625 C-1.65297852 33.69087891 -1.65297852 33.69087891 -1.6875 35.125 C-1.72166016 36.06988281 -1.75582031 37.01476562 -1.79101562 37.98828125 C-1.87364112 40.32540253 -1.94273988 42.66214191 -2 45 C-3.65614657 45.38218767 -5.32457024 45.71395102 -7 46 C-8 45 -8 45 -8.11352539 43.05053711 C-8.10567017 41.8015564 -8.10567017 41.8015564 -8.09765625 40.52734375 C-8.09443359 39.62822266 -8.09121094 38.72910156 -8.08789062 37.80273438 C-8.07951172 36.85720703 -8.07113281 35.91167969 -8.0625 34.9375 C-8.05798828 33.98810547 -8.05347656 33.03871094 -8.04882812 32.06054688 C-8.0370011 29.70696935 -8.02052025 27.35351523 -8 25 C-8.61359375 24.70867188 -9.2271875 24.41734375 -9.859375 24.1171875 C-13.0489253 22.45256818 -14.21703117 21.18387291 -16 18 C-16.72766598 13.24012988 -17.17963396 8.31573898 -14.94140625 3.921875 C-10.48642273 -1.52457369 -6.49029614 -1.67021438 0 0 Z " fill="#FFFFFF" transform="translate(526,981)"/>
<path d="M0 0 C2.97 0 5.94 0 9 0 C9 6.27 9 12.54 9 19 C5.04 19 1.08 19 -3 19 C-3.0809313 16.39521117 -3.14045434 13.79293347 -3.1875 11.1875 C-3.22520508 10.08051758 -3.22520508 10.08051758 -3.26367188 8.95117188 C-3.29296875 6.79296875 -3.29296875 6.79296875 -3 3 C-2.01 2.01 -1.02 1.02 0 0 Z " fill="#E9E9E9" transform="translate(510,1099)"/>
<path d="M0 0 C1.32 0 2.64 0 4 0 C4.33 6.6 4.66 13.2 5 20 C7.083125 20.12375 9.16625 20.2475 11.3125 20.375 C17.625 20.75 17.625 20.75 21 23 C21 23.99 21 24.98 21 26 C17.52085059 26.02887814 14.04173169 26.04675687 10.5625 26.0625 C9.07266602 26.07506836 9.07266602 26.07506836 7.55273438 26.08789062 C6.60849609 26.09111328 5.66425781 26.09433594 4.69140625 26.09765625 C3.37958374 26.10551147 3.37958374 26.10551147 2.04125977 26.11352539 C0 26 0 26 -1 25 C-1.09946453 23.23140807 -1.13080217 21.45888549 -1.1328125 19.6875 C-1.13410156 18.61242188 -1.13539063 17.53734375 -1.13671875 16.4296875 C-1.13091797 14.73199219 -1.13091797 14.73199219 -1.125 13 C-1.12886719 11.86820313 -1.13273437 10.73640625 -1.13671875 9.5703125 C-1.13542969 8.49523438 -1.13414062 7.42015625 -1.1328125 6.3125 C-1.13168457 5.31863281 -1.13055664 4.32476563 -1.12939453 3.30078125 C-1 1 -1 1 0 0 Z " fill="#D9D9D9" transform="translate(480,1103)"/>
<path d="M0 0 C8 0 8 0 11 2 C11.2208564 4.95064148 11.28060989 7.68368231 11.1875 10.625 C11.17396484 11.42679688 11.16042969 12.22859375 11.14648438 13.0546875 C11.11109051 15.03674378 11.05728234 17.01845551 11 19 C7.37 19 3.74 19 0 19 C0 12.73 0 6.46 0 0 Z " fill="#F4F4F4" transform="translate(490,1099)"/>
<path d="M0 0 C1.32 0 2.64 0 4 0 C4.02886984 3.97915159 4.04675406 7.95827653 4.0625 11.9375 C4.07087891 13.07380859 4.07925781 14.21011719 4.08789062 15.38085938 C4.09272461 17.00024414 4.09272461 17.00024414 4.09765625 18.65234375 C4.10551147 20.15269165 4.10551147 20.15269165 4.11352539 21.68334961 C4 24 4 24 3 25 C1.43827255 25.08685603 -0.12729344 25.10702219 -1.69140625 25.09765625 C-2.63564453 25.09443359 -3.57988281 25.09121094 -4.55273438 25.08789062 C-6.04256836 25.07532227 -6.04256836 25.07532227 -7.5625 25.0625 C-8.55958984 25.05798828 -9.55667969 25.05347656 -10.58398438 25.04882812 C-13.05604849 25.03700007 -15.52799518 25.02051849 -18 25 C-17.625 23.0625 -17.625 23.0625 -17 21 C-13.31825638 19.15912819 -8.93175819 19.53031595 -4.87109375 19.28125 C-2.10540179 19.31700202 -2.10540179 19.31700202 -1 18 C-0.84417697 16.65984779 -0.74955858 15.31241097 -0.68359375 13.96484375 C-0.64169922 13.15595703 -0.59980469 12.34707031 -0.55664062 11.51367188 C-0.51732422 10.66353516 -0.47800781 9.81339844 -0.4375 8.9375 C-0.39431641 8.08349609 -0.35113281 7.22949219 -0.30664062 6.34960938 C-0.20023298 4.23327963 -0.09958269 2.11666187 0 0 Z " fill="#E9E9E9" transform="translate(525,1104)"/>
<path d="M0 0 C2.375 1.5625 2.375 1.5625 4 4 C4.42213381 7.43737531 4.60856522 9.82090489 3 12.9375 C-0.24104443 14.65930485 -3.42422767 14.66300779 -7 14 C-9.6923481 11.81246717 -9.93936827 10.41576045 -10.4375 7 C-10 4 -10 4 -8.375 1.625 C-5.28813568 -0.48706506 -3.6717087 -0.61195145 0 0 Z " fill="#F5F5F5" transform="translate(507,1051)"/>
<path d="M0 0 C3 0 3 0 5.125 1.9375 C6.08362127 2.95806295 7.04189428 3.97895303 8 5 C9.60012766 6.60819553 11.20455142 8.21212418 12.8125 9.8125 C14.20833333 11.20833333 15.60416667 12.60416667 17 14 C16.34 15.32 15.68 16.64 15 18 C12 18 12 18 10.37426758 16.71484375 C9.80345459 16.12832031 9.2326416 15.54179688 8.64453125 14.9375 C8.02255859 14.30585937 7.40058594 13.67421875 6.75976562 13.0234375 C6.11716797 12.35570312 5.47457031 11.68796875 4.8125 11 C4.15830078 10.33226562 3.50410156 9.66453125 2.83007812 8.9765625 C1.21313865 7.32421559 -0.39640491 5.66528399 -2 4 C-1.34 2.68 -0.68 1.36 0 0 Z " fill="#E9E9E9" transform="translate(561,1038)"/>
<path d="M0 0 C2.4375 0.875 2.4375 0.875 4.4375 3.875 C4.98302912 9.98492617 4.98302912 9.98492617 3.25 12.8125 C0.79276759 14.25294659 -0.76413168 14.3055182 -3.5625 13.875 C-6.09936376 10.06970436 -6.15605135 7.33590938 -5.5625 2.875 C-3.92978469 0.0392313 -3.26331106 -0.15918591 0 0 Z " fill="#EEEEEE" transform="translate(521.5625,986.125)"/>
<path d="M0 0 C4.25314786 1.67642324 7.12101814 4.7175909 10.3125 7.875 C10.87517578 8.40480469 11.43785156 8.93460938 12.01757812 9.48046875 C13.61328125 11.0546875 13.61328125 11.0546875 16 14 C15.64916992 16.18408203 15.64916992 16.18408203 15 18 C11.69881206 17.4194679 10.08865924 16.45131901 7.765625 14.05859375 C7.19199219 13.47529297 6.61835937 12.89199219 6.02734375 12.29101562 C5.44082031 11.67935547 4.85429688 11.06769531 4.25 10.4375 C3.64800781 9.82197266 3.04601562 9.20644531 2.42578125 8.57226562 C0.94365619 7.05485187 -0.5290967 5.52829404 -2 4 C-1.34 2.68 -0.68 1.36 0 0 Z " fill="#F7F7F7" transform="translate(539,1060)"/>
<path d="M0 0 C1.32 0.66 2.64 1.32 4 2 C4 5.68072261 3.26268257 6.19508747 0.75 8.75 C0.14671875 9.38421875 -0.4565625 10.0184375 -1.078125 10.671875 C-3 12 -3 12 -5.234375 11.703125 C-6.10835937 11.35507813 -6.10835937 11.35507813 -7 11 C-7 7 -7 7 -5.46875 5.078125 C-4.8190625 4.47484375 -4.169375 3.8715625 -3.5 3.25 C-2.8503125 2.63640625 -2.200625 2.0228125 -1.53125 1.390625 C-1.0259375 0.93171875 -0.520625 0.4728125 0 0 Z " fill="#EAEAEA" transform="translate(559,1052)"/>
<path d="M0 0 C1.33897583 0.95043374 2.67105427 1.91059147 4 2.875 C5.11375 3.67550781 5.11375 3.67550781 6.25 4.4921875 C6.8275 4.98976563 7.405 5.48734375 8 6 C8 6.66 8 7.32 8 8 C5.36 8 2.72 8 0 8 C0 5.36 0 2.72 0 0 Z " fill="#D3D3D3" transform="translate(449,1043)"/>
</svg>
